# xmcd
#
# Track frame offsets:
#	182
#	20687
#	41690
#	59272
#	88000
#	108687
#	132825
#	148712
#	172145
#	199135
#	219765
#
# Disc length: 3359 seconds
#
# Revision: 6
# Processed by: cddbd v1.5.2PL0 Copyright (c) Steve Scherf et al.
# Submitted via: audiograbber 1.83.01
#
DISCID=a30d1d0b
DTITLE=Ford, Robben and The Blue Line - Mystic mile
DYEAR=1993
DGENRE=Blues
TTITLE0=He don't play nothin' but the blues
TTITLE1=Busted up
TTITLE2=Politician
TTITLE3=Worried life blues
TTITLE4=Misdirected blues
TTITLE5=Moth to a flame
TTITLE6=Trying to get the right thing
TTITLE7=Say what's on your mind
TTITLE8=The plunge
TTITLE9=I don't play
TTITLE10=Mystic mile
EXTD=
EXTT0=
EXTT1=
EXTT2=
EXTT3=
EXTT4=
EXTT5=
EXTT6=
EXTT7=
EXTT8=
EXTT9=
EXTT10=
PLAYORDER=
